<svg width="292" height="149" viewBox="0 0 292 149" fill="none" xmlns="http://www.w3.org/2000/svg">
<foreignObject x="9.82812" y="-16.1709" width="271.82" height="125.193"><div xmlns="http://www.w3.org/1999/xhtml" style="backdrop-filter:blur(9px);clip-path:url(#bgblur_0_2747_366_clip_path);height:100%;width:100%"></div></foreignObject><g data-figma-bg-blur-radius="18">
<rect x="27.8281" y="31.5244" width="230" height="60" rx="18" transform="rotate(-7.41825 27.8281 31.5244)" fill="white" fill-opacity="0.7"/>
<rect x="28.3885" y="31.9557" width="229" height="59" rx="17.5" transform="rotate(-7.41825 28.3885 31.9557)" stroke="#050E1A" stroke-opacity="0.08"/>
<g filter="url(#filter1_ddi_2747_366)">
<rect x="27.8281" y="31.5244" width="230" height="60" rx="18" transform="rotate(-7.41825 27.8281 31.5244)" fill="white" fill-opacity="0.01" shape-rendering="crispEdges"/>
</g>
<g clip-path="url(#clip1_2747_366)">
<path d="M52.5293 64.9553C52.7409 65.0433 52.972 65.0741 53.1992 65.0445C53.4265 65.0149 53.642 64.926 53.824 64.7868L58.0184 61.6073C58.2003 61.4681 58.3423 61.2836 58.4304 61.0723C58.5184 60.8609 58.5493 60.6301 58.52 60.403L57.8457 55.2241C57.8159 54.9971 57.7269 54.7819 57.5877 54.6001C57.4485 54.4183 57.2639 54.2764 57.0525 54.1884L52.1838 52.189C51.9721 52.101 51.7411 52.0702 51.5138 52.0998C51.2865 52.1294 51.0711 52.2183 50.889 52.3576L46.6946 55.537C46.5128 55.6762 46.3707 55.8607 46.2827 56.072C46.1946 56.2834 46.1637 56.5142 46.1931 56.7413L46.8674 61.9202C46.8972 62.1472 46.9861 62.3624 47.1253 62.5442C47.2646 62.726 47.4491 62.868 47.6605 62.9559L52.5293 64.9553Z" stroke="#008E8E" stroke-width="1.30566" stroke-linecap="round" stroke-linejoin="round"/>
<path d="M53.1983 65.0459L52.3555 58.5723" stroke="#008E8E" stroke-width="1.30566" stroke-linecap="round" stroke-linejoin="round"/>
<path d="M46.2969 56.0693L52.3569 58.572L57.574 54.601" stroke="#008E8E" stroke-width="1.30566" stroke-linecap="round" stroke-linejoin="round"/>
<path d="M48.793 53.9473L55.0534 56.5226" stroke="#008E8E" stroke-width="1.30566" stroke-linecap="round" stroke-linejoin="round"/>
</g>
<path d="M74.4852 46.655C74.5932 47.4841 74.5368 48.2201 74.316 48.8629C74.0952 49.5058 73.7452 50.025 73.2658 50.4205C72.7864 50.816 72.2115 51.0574 71.5411 51.1447C70.8707 51.232 70.2531 51.1459 69.6885 50.8863C69.1238 50.6267 68.6525 50.2145 68.2745 49.6495C67.8964 49.0846 67.6535 48.3876 67.5455 47.5585C67.4376 46.7295 67.494 45.9935 67.7147 45.3506C67.9355 44.7077 68.2856 44.1885 68.7649 43.793C69.2443 43.3975 69.8192 43.1561 70.4896 43.0688C71.1601 42.9815 71.7776 43.0677 72.3423 43.3273C72.9069 43.5868 73.3783 43.9991 73.7563 44.564C74.1343 45.1289 74.3773 45.8259 74.4852 46.655ZM73.564 46.7749C73.4754 46.0943 73.2867 45.5346 72.998 45.096C72.7119 44.657 72.3599 44.3424 71.9422 44.1522C71.5271 43.9617 71.0815 43.8974 70.6056 43.9593C70.1296 44.0213 69.7141 44.1977 69.359 44.4886C69.0065 44.7791 68.7469 45.1733 68.5801 45.6712C68.4159 46.1688 68.3781 46.7579 68.4667 47.4386C68.5553 48.1193 68.7427 48.6791 69.0289 49.118C69.3176 49.5567 69.6695 49.8713 70.0847 50.0618C70.5024 50.2521 70.9492 50.3162 71.4252 50.2542C71.9011 50.1922 72.3154 50.016 72.6679 49.7255C73.0229 49.4346 73.2826 49.0404 73.4468 48.5428C73.6136 48.0449 73.6526 47.4556 73.564 46.7749ZM76.5976 50.3771L75.5741 42.5161L80.3183 41.8984L80.4282 42.7429L76.6359 43.2366L76.9817 45.8928L80.5284 45.431L80.6383 46.2754L77.0917 46.7372L77.4395 49.4087L81.2932 48.9069L81.4032 49.7514L76.5976 50.3771ZM82.034 41.675L83.1701 41.5271L86.6912 47.7045L86.7833 47.6925L88.6052 40.8195L89.7414 40.6715L90.7649 48.5324L89.8744 48.6484L89.0968 42.6759L89.02 42.6859L87.3411 48.9782L86.4813 49.0902L83.2471 43.4376L83.1704 43.4476L83.948 49.42L83.0575 49.536L82.034 41.675ZM95.7135 47.8881L94.69 40.0272L97.3461 39.6814C97.9628 39.6011 98.4814 39.6468 98.9019 39.8184C99.3246 39.9872 99.6551 40.2473 99.8935 40.5988C100.132 40.9503 100.281 41.3576 100.341 41.8208C100.402 42.284 100.362 42.7172 100.222 43.1206C100.084 43.5236 99.8345 43.8632 99.4723 44.1394C99.1098 44.413 98.6227 44.5896 98.0111 44.6692L96.1073 44.9171L95.9974 44.0727L97.8705 43.8288C98.2927 43.7738 98.6222 43.6567 98.8591 43.4776C99.096 43.2984 99.2559 43.0772 99.3387 42.814C99.4238 42.5479 99.4458 42.2575 99.4049 41.9427C99.3639 41.628 99.2684 41.3542 99.1184 41.1213C98.9709 40.8881 98.7588 40.7179 98.482 40.6108C98.2049 40.5012 97.8527 40.4742 97.4253 40.5298L95.7518 40.7477L96.6654 47.7642L95.7135 47.8881ZM102.452 47.0108L101.684 41.1151L102.59 40.9972L103.358 46.8929L102.452 47.0108ZM102.017 40.0725C101.84 40.0955 101.68 40.0552 101.536 39.9516C101.395 39.8477 101.314 39.7112 101.292 39.5424C101.27 39.3735 101.314 39.2207 101.424 39.0841C101.536 38.9472 101.68 38.8673 101.857 38.8443C102.033 38.8213 102.192 38.8618 102.333 38.9657C102.477 39.0693 102.56 39.2056 102.582 39.3744C102.604 39.5433 102.558 39.6962 102.446 39.8332C102.336 39.9698 102.193 40.0495 102.017 40.0725ZM104.925 40.6932L106.651 42.9198L107.75 40.3254L108.794 40.1894L107.274 43.3852L109.561 46.0851L108.517 46.2211L106.807 44.1173L105.692 46.5889L104.648 46.7248L106.137 43.5331L103.881 40.8291L104.925 40.6932ZM113.099 45.7494C112.531 45.8234 112.024 45.7618 111.58 45.5647C111.137 45.3647 110.775 45.0527 110.494 44.6287C110.214 44.2019 110.035 43.6866 109.957 43.0827C109.878 42.4788 109.919 41.9322 110.079 41.4429C110.241 40.9508 110.504 40.5497 110.867 40.2396C111.232 39.9266 111.681 39.7354 112.213 39.6661C112.52 39.6262 112.83 39.6379 113.143 39.7012C113.456 39.7646 113.75 39.8955 114.025 40.0938C114.301 40.2895 114.536 40.566 114.731 40.9232C114.925 41.2803 115.059 41.734 115.13 42.2842L115.18 42.668L110.636 43.2597L110.534 42.4767L114.157 42.0049C114.114 41.6723 114.009 41.3841 113.842 41.1404C113.677 40.8964 113.463 40.7147 113.201 40.5954C112.941 40.4757 112.647 40.4372 112.319 40.4799C111.958 40.5269 111.658 40.6571 111.418 40.8705C111.18 41.081 111.009 41.3375 110.905 41.6399C110.801 41.9422 110.77 42.2559 110.813 42.5809L110.881 43.1029C110.939 43.5481 111.065 43.9156 111.258 44.2052C111.454 44.492 111.701 44.6979 111.999 44.8232C112.296 44.9458 112.627 44.9834 112.993 44.9357C113.231 44.9047 113.442 44.8435 113.625 44.752C113.81 44.6575 113.965 44.5334 114.088 44.3794C114.21 44.2229 114.297 44.0373 114.347 43.8226L115.254 43.9543C115.201 44.2631 115.08 44.5443 114.892 44.7978C114.703 45.0487 114.457 45.2577 114.153 45.4248C113.85 45.5892 113.498 45.6975 113.099 45.7494ZM116.784 37.1505L117.808 45.0114L116.902 45.1294L115.879 37.2684L116.784 37.1505ZM125.024 44.1812C124.496 44.2499 124.019 44.2171 123.59 44.0829C123.164 43.9459 122.816 43.727 122.548 43.4262C122.28 43.1228 122.119 42.7586 122.066 42.3335C122.02 42.0012 122.046 41.6856 122.142 41.3868C122.238 41.0855 122.389 40.8251 122.595 40.6058C122.803 40.3835 123.046 40.2282 123.326 40.1397L123.32 40.0936C122.932 40.0454 122.605 39.8732 122.34 39.5772C122.074 39.2787 121.916 38.9207 121.864 38.5033C121.81 38.1044 121.864 37.7343 122.028 37.3929C122.192 37.0515 122.441 36.7666 122.775 36.5383C123.113 36.3096 123.511 36.1653 123.972 36.1053C124.428 36.046 124.846 36.0839 125.228 36.2189C125.61 36.354 125.924 36.5655 126.17 36.8536C126.418 37.1414 126.569 37.4847 126.624 37.8836C126.675 38.301 126.61 38.6881 126.428 39.045C126.247 39.399 125.979 39.6485 125.623 39.7938L125.629 39.8398C125.92 39.854 126.192 39.9422 126.445 40.1045C126.697 40.2642 126.909 40.4773 127.082 40.7436C127.254 41.0075 127.363 41.3055 127.409 41.6379C127.462 42.063 127.396 42.4567 127.212 42.819C127.029 43.1784 126.75 43.4789 126.373 43.7206C125.998 43.9594 125.548 44.1129 125.024 44.1812ZM124.914 43.3368C125.269 43.2905 125.569 43.1929 125.812 43.0441C126.056 42.8953 126.234 42.7068 126.348 42.4787C126.461 42.2505 126.501 41.9955 126.467 41.7137C126.425 41.4172 126.315 41.1649 126.134 40.9569C125.953 40.7488 125.724 40.5965 125.446 40.5C125.171 40.4031 124.866 40.3763 124.534 40.4196C124.199 40.4633 123.908 40.5675 123.661 40.7323C123.417 40.8968 123.234 41.1028 123.113 41.3502C122.994 41.5972 122.956 41.869 122.997 42.1655C123.031 42.4473 123.131 42.6842 123.296 42.876C123.464 43.0675 123.686 43.2038 123.962 43.285C124.238 43.3662 124.555 43.3834 124.914 43.3368ZM124.428 39.6059C124.709 39.5693 124.952 39.4805 125.154 39.3396C125.36 39.1983 125.512 39.0185 125.611 38.8C125.71 38.5815 125.743 38.3365 125.711 38.0649C125.673 37.7991 125.58 37.5757 125.432 37.3947C125.283 37.2111 125.093 37.0797 124.862 37.0005C124.63 36.9188 124.369 36.8968 124.08 36.9344C123.786 36.9727 123.536 37.0612 123.33 37.1999C123.124 37.3361 122.974 37.5117 122.88 37.727C122.785 37.9397 122.756 38.1789 122.793 38.4447C122.826 38.7163 122.917 38.9452 123.066 39.1313C123.218 39.3172 123.411 39.452 123.646 39.536C123.881 39.6199 124.141 39.6432 124.428 39.6059Z" fill="#2A3440"/>
<path d="M70.4172 67.3165L69.4124 59.5999L70.3017 59.4841L70.6726 62.3326L70.7479 62.3228C70.8001 62.2138 70.8739 62.0739 70.9692 61.9032C71.0666 61.7295 71.2166 61.567 71.4191 61.4154C71.6238 61.261 71.9146 61.1593 72.2914 61.1103C72.7787 61.0468 73.2241 61.1127 73.6276 61.308C74.0311 61.5032 74.3662 61.8108 74.6329 62.2308C74.8996 62.6508 75.0725 63.1647 75.1517 63.7726C75.2315 64.3855 75.1964 64.9304 75.0464 65.4072C74.8962 65.8814 74.6524 66.2657 74.3152 66.5599C73.9777 66.8517 73.5678 67.0289 73.0855 67.0917C72.7137 67.1401 72.408 67.1174 72.1684 67.0234C71.9285 66.9269 71.738 66.8074 71.5968 66.6648C71.4553 66.5198 71.345 66.3987 71.266 66.3017L71.1605 66.3155L71.2763 67.2047L70.4172 67.3165ZM70.9146 64.309C70.9715 64.746 71.0857 65.1233 71.2573 65.4407C71.4286 65.7556 71.6496 65.9912 71.9203 66.1476C72.1907 66.3014 72.5042 66.3551 72.8609 66.3086C73.2327 66.2602 73.5301 66.1219 73.7533 65.8936C73.9787 65.6624 74.1324 65.3716 74.2145 65.0212C74.2988 64.6679 74.3141 64.2853 74.2605 63.8733C74.2075 63.4664 74.0969 63.1078 73.9288 62.7976C73.7629 62.4846 73.5419 62.249 73.2658 62.0908C72.992 61.9297 72.6666 61.8737 72.2899 61.9228C71.9281 61.9699 71.6361 62.1011 71.4138 62.3166C71.1912 62.5295 71.0384 62.8074 70.9553 63.1503C70.8719 63.4907 70.8583 63.8769 70.9146 64.309ZM78.6074 66.3881C78.2407 66.4359 77.8989 66.4101 77.582 66.3109C77.2647 66.2091 77.001 66.0378 76.7908 65.797C76.5803 65.5536 76.4505 65.2435 76.4015 64.8667C76.3583 64.5351 76.3886 64.2579 76.4924 64.0349C76.5959 63.8094 76.7492 63.6234 76.9524 63.4768C77.1556 63.3303 77.3853 63.211 77.6415 63.1189C77.8999 63.0239 78.1612 62.9414 78.4254 62.8712C78.7712 62.7802 79.0519 62.7092 79.2675 62.6581C79.4853 62.6042 79.6406 62.5419 79.7336 62.471C79.8291 62.3998 79.8675 62.2926 79.8488 62.1494L79.8449 62.1193C79.7965 61.7475 79.6572 61.4719 79.4269 61.2924C79.1991 61.1126 78.8805 61.0494 78.471 61.1027C78.0465 61.1579 77.7258 61.2942 77.5088 61.5115C77.2919 61.7288 77.1482 61.9493 77.0777 62.1731L76.1944 61.9815C76.2994 61.6102 76.4647 61.3103 76.6903 61.0816C76.9182 60.8501 77.1765 60.676 77.4653 60.5592C77.7563 60.4396 78.0475 60.3608 78.3389 60.3229C78.5247 60.2987 78.7412 60.2935 78.9882 60.3073C79.2374 60.3183 79.4839 60.3769 79.7277 60.4831C79.9739 60.589 80.1902 60.769 80.3766 61.0232C80.5629 61.2773 80.6861 61.6343 80.7459 62.094L81.2424 65.9071L80.3532 66.0229L80.2511 65.2391L80.2059 65.245C80.162 65.3785 80.079 65.5259 79.957 65.6874C79.8349 65.8489 79.6637 65.9951 79.4431 66.126C79.2226 66.2569 78.944 66.3443 78.6074 66.3881ZM78.6391 65.5716C78.9907 65.5259 79.2782 65.4182 79.5013 65.2486C79.727 65.0787 79.8871 64.8765 79.9818 64.642C80.0789 64.4071 80.1118 64.169 80.0804 63.9279L79.9744 63.114C79.9426 63.1642 79.8651 63.2164 79.7419 63.2708C79.6209 63.3223 79.4793 63.3726 79.3171 63.4219C79.1571 63.4682 79.0005 63.5116 78.8474 63.552C78.6965 63.5895 78.5741 63.6208 78.4803 63.6458C78.2531 63.706 78.0435 63.7831 77.8513 63.8771C77.6614 63.9682 77.5136 64.0884 77.4078 64.2376C77.3042 64.3839 77.2672 64.5701 77.2966 64.7961C77.3368 65.1051 77.4815 65.3238 77.7307 65.4523C77.9821 65.578 78.2849 65.6178 78.6391 65.5716ZM84.6288 59.5805L84.727 60.3341L81.7277 60.7246L81.6296 59.971L84.6288 59.5805ZM82.3232 58.4706L83.2124 58.3549L83.9306 63.8711C83.9633 64.1223 84.0243 64.3059 84.1135 64.422C84.2049 64.5353 84.3111 64.6058 84.4322 64.6334C84.5555 64.6583 84.6825 64.6622 84.8131 64.6452C84.9111 64.6324 84.9908 64.6169 85.0523 64.5987C85.1135 64.578 85.1624 64.5614 85.1991 64.5489L85.484 65.3242C85.4266 65.3546 85.3454 65.3882 85.2403 65.4249C85.1356 65.464 85.0003 65.4944 84.8345 65.516C84.5833 65.5487 84.3301 65.5268 84.0749 65.4501C83.8222 65.3732 83.6024 65.2345 83.4153 65.0341C83.2308 64.8333 83.1166 64.5646 83.0728 64.228L82.3232 58.4706ZM88.4834 59.0787L88.5815 59.8322L85.5823 60.2228L85.4842 59.4692L88.4834 59.0787ZM86.1778 57.9688L87.067 57.853L87.7852 63.3692C87.8179 63.6204 87.8789 63.8041 87.9681 63.9202C88.0595 64.0334 88.1657 64.1039 88.2868 64.1316C88.4101 64.1564 88.5371 64.1603 88.6677 64.1433C88.7657 64.1305 88.8454 64.115 88.9069 64.0968C88.968 64.0761 89.017 64.0595 89.0537 64.0471L89.3385 64.8223C89.2812 64.8528 89.2 64.8863 89.0949 64.923C88.9902 64.9622 88.8549 64.9926 88.6891 65.0141C88.4379 65.0469 88.1847 65.0249 87.9295 64.9483C87.6768 64.8713 87.4569 64.7326 87.2699 64.5322C87.0854 64.3314 86.9712 64.0627 86.9274 63.7261L86.1778 57.9688ZM92.9546 64.5048C92.397 64.5774 91.8999 64.5169 91.4634 64.3234C91.0291 64.127 90.6738 63.8208 90.3974 63.4046C90.1231 62.9856 89.9474 62.4797 89.8702 61.8869C89.793 61.2941 89.833 60.7575 89.9902 60.2773C90.1495 59.7941 90.4073 59.4004 90.7637 59.096C91.1222 58.7887 91.5627 58.6011 92.0851 58.5331C92.3866 58.4938 92.6908 58.5053 92.9978 58.5675C93.3047 58.6297 93.5935 58.7582 93.8641 58.9529C94.1344 59.145 94.3651 59.4164 94.5564 59.767C94.7476 60.1176 94.8784 60.563 94.9487 61.103L94.9978 61.4798L90.5366 62.0607L90.4365 61.292L93.9934 60.8289C93.9509 60.5024 93.8476 60.2195 93.6837 59.9803C93.5222 59.7407 93.3125 59.5624 93.0546 59.4453C92.7991 59.3278 92.5107 59.29 92.1891 59.3319C91.835 59.378 91.54 59.5058 91.3041 59.7153C91.0705 59.922 90.9027 60.1738 90.8009 60.4706C90.699 60.7674 90.6688 61.0753 90.7104 61.3943L90.7771 61.9068C90.834 62.3438 90.9576 62.7045 91.1479 62.9889C91.3404 63.2703 91.5826 63.4725 91.8745 63.5955C92.166 63.7159 92.4914 63.7527 92.8506 63.706C93.0842 63.6755 93.291 63.6154 93.4709 63.5256C93.6529 63.4329 93.8044 63.311 93.9252 63.1599C94.0457 63.0062 94.1306 62.824 94.1798 62.6133L95.0702 62.7426C95.0177 63.0457 94.8991 63.3217 94.7144 63.5706C94.5293 63.8169 94.2878 64.0221 93.9899 64.186C93.6916 64.3475 93.3465 64.4537 92.9546 64.5048ZM96.688 63.896L95.9345 58.1085L96.7935 57.9967L96.9074 58.8708L96.9676 58.863C97.0359 58.5629 97.1965 58.3057 97.4496 58.0913C97.7027 57.877 98.0026 57.7473 98.3492 57.7022C98.4145 57.6937 98.4963 57.6843 98.5946 57.674C98.6929 57.6638 98.7675 57.6579 98.8184 57.6564L98.9361 58.5607C98.905 58.5571 98.8345 58.5548 98.7245 58.5538C98.6167 58.5499 98.5038 58.5557 98.3857 58.5711C98.1044 58.6077 97.8609 58.6994 97.6552 58.8463C97.4517 58.9903 97.2993 59.1736 97.198 59.3963C97.0989 59.6161 97.0664 59.8566 97.1004 60.1179L97.5772 63.7803L96.688 63.896ZM101.667 65.4548C101.517 65.4745 101.381 65.4794 101.259 65.4697C101.138 65.4624 101.054 65.4504 101.005 65.4337L101.129 64.6206C101.353 64.6477 101.546 64.6429 101.71 64.6063C101.874 64.5696 102.011 64.4764 102.122 64.3266C102.236 64.1789 102.327 63.9512 102.397 63.6432L102.504 63.1695L99.6063 57.6305L100.571 57.5049L102.769 61.9088L102.829 61.9009L103.826 57.081L104.791 56.9554L103.198 63.9068C103.126 64.2201 103.021 64.4854 102.884 64.7025C102.746 64.9222 102.576 65.0939 102.372 65.2175C102.171 65.3407 101.936 65.4198 101.667 65.4548Z" fill="#2A3440"/>
<rect x="172.306" y="22.2877" width="72.0276" height="41.0023" rx="20.5012" transform="rotate(-7.41825 172.306 22.2877)" fill="white"/>
<rect x="172.306" y="22.2877" width="72.0276" height="41.0023" rx="20.5012" transform="rotate(-7.41825 172.306 22.2877)" stroke="#D7DFE5"/>
<path d="M185.072 27.545L186.058 35.1175L185.141 35.2368L184.28 28.6257L184.236 28.6315L182.547 30.0998L182.425 29.168L184.155 27.6644L185.072 27.545ZM188.473 34.8029L188.387 34.1374L190.53 31.0758C190.782 30.7171 190.987 30.4072 191.146 30.1458C191.305 29.882 191.416 29.6394 191.48 29.418C191.546 29.1938 191.564 28.9658 191.534 28.7341C191.499 28.4679 191.405 28.2458 191.251 28.0677C191.1 27.8894 190.908 27.7615 190.675 27.684C190.442 27.6066 190.188 27.5857 189.915 27.6213C189.624 27.6592 189.378 27.7527 189.177 27.9017C188.978 28.0479 188.833 28.236 188.743 28.4658C188.655 28.6954 188.629 28.9543 188.667 29.2427L187.794 29.3564C187.737 28.9127 187.788 28.5099 187.949 28.148C188.11 27.7861 188.355 27.4886 188.683 27.2553C189.013 27.0218 189.399 26.8763 189.84 26.8188C190.284 26.7611 190.69 26.8035 191.057 26.9463C191.424 27.089 191.725 27.3067 191.961 27.5993C192.197 27.8919 192.341 28.233 192.392 28.6224C192.428 28.901 192.413 29.1799 192.346 29.4593C192.282 29.7359 192.148 30.053 191.944 30.4104C191.742 30.7651 191.454 31.2036 191.081 31.726L189.617 33.7666L189.625 33.8258L193.145 33.3675L193.251 34.1809L188.473 34.8029ZM198.197 33.5369L197.457 27.8576L198.33 27.744L199.069 33.4233L198.197 33.5369ZM197.778 26.8533C197.608 26.8754 197.454 26.8366 197.315 26.7368C197.179 26.6366 197.101 26.5052 197.08 26.3425C197.059 26.1798 197.101 26.0327 197.206 25.9011C197.315 25.7692 197.454 25.6922 197.624 25.6701C197.794 25.6479 197.947 25.6869 198.083 25.787C198.221 25.8868 198.301 26.0181 198.322 26.1808C198.343 26.3435 198.3 26.4908 198.192 26.6227C198.086 26.7542 197.948 26.8311 197.778 26.8533ZM201.333 29.6541L201.778 33.0706L200.906 33.1842L200.166 27.5049L201.009 27.3951L201.125 28.2825L201.199 28.2729C201.294 27.9672 201.466 27.7091 201.715 27.4988C201.963 27.286 202.301 27.1517 202.73 27.0959C203.115 27.0458 203.461 27.0809 203.77 27.2011C204.079 27.3188 204.334 27.5263 204.536 27.8234C204.737 28.118 204.869 28.5069 204.932 28.9901L205.402 32.5988L204.529 32.7124L204.067 29.1628C204.009 28.7167 203.848 28.3842 203.584 28.1654C203.319 27.9441 202.985 27.8598 202.581 27.9125C202.302 27.9487 202.061 28.0415 201.857 28.1909C201.656 28.3399 201.508 28.5385 201.412 28.7866C201.317 29.0346 201.29 29.3238 201.333 29.6541Z" fill="#050E1A"/>
<path d="M189.548 49.0884L188.749 49.4308C188.679 49.2995 188.585 49.1753 188.466 49.0582C188.35 48.9382 188.2 48.8464 188.017 48.7828C187.834 48.7192 187.608 48.7049 187.34 48.7398C186.972 48.7877 186.677 48.9122 186.454 49.1135C186.234 49.3118 186.14 49.54 186.174 49.798C186.204 50.0273 186.311 50.1975 186.495 50.3087C186.679 50.4199 186.954 50.4967 187.32 50.5392L188.239 50.642C188.793 50.7024 189.219 50.8497 189.517 51.0838C189.815 51.3154 189.991 51.6409 190.046 52.0604C190.091 52.4044 190.032 52.7248 189.869 53.0216C189.709 53.318 189.463 53.5673 189.131 53.7695C188.8 53.9717 188.401 54.1031 187.935 54.1638C187.322 54.2436 186.798 54.1767 186.362 53.9631C185.926 53.7496 185.622 53.3944 185.448 52.8975L186.295 52.5646C186.421 52.8769 186.61 53.0987 186.863 53.2301C187.119 53.3611 187.435 53.402 187.813 53.3528C188.243 53.2969 188.573 53.1612 188.802 52.9459C189.033 52.7276 189.132 52.4895 189.098 52.2315C189.071 52.0231 188.975 51.858 188.811 51.7362C188.647 51.6119 188.408 51.5343 188.097 51.5033L187.066 51.399C186.499 51.3403 186.069 51.191 185.775 50.9509C185.484 50.708 185.311 50.3793 185.257 49.965C185.213 49.6262 185.269 49.3142 185.426 49.0288C185.585 48.7431 185.82 48.5045 186.131 48.3128C186.446 48.1209 186.814 47.9974 187.236 47.9425C187.83 47.8651 188.313 47.9347 188.686 48.1511C189.061 48.3673 189.349 48.6797 189.548 49.0884ZM193.72 47.1778L193.821 47.9595L190.71 48.3646L190.608 47.5829L193.72 47.1778ZM191.328 46.0264L192.25 45.9063L192.995 51.6287C193.029 51.8893 193.092 52.0798 193.185 52.2003C193.28 52.3178 193.39 52.3909 193.516 52.4196C193.644 52.4453 193.775 52.4494 193.911 52.4317C194.012 52.4185 194.095 52.4024 194.159 52.3835C194.222 52.362 194.273 52.3448 194.311 52.3319L194.607 53.1361C194.547 53.1677 194.463 53.2025 194.354 53.2406C194.245 53.2812 194.105 53.3127 193.933 53.3351C193.672 53.3691 193.41 53.3463 193.145 53.2668C192.883 53.187 192.655 53.0431 192.461 52.8352C192.269 52.6269 192.151 52.3482 192.105 51.999L191.328 46.0264ZM198.518 52.7859C197.976 52.8565 197.483 52.7894 197.041 52.5847C196.601 52.3796 196.236 52.0601 195.946 51.6261C195.659 51.1918 195.475 50.6646 195.394 50.0444C195.313 49.419 195.355 48.8583 195.521 48.3623C195.69 47.866 195.96 47.4624 196.333 47.1515C196.709 46.8402 197.168 46.6493 197.71 46.5788C198.252 46.5082 198.743 46.5754 199.183 46.7805C199.625 46.9852 199.991 47.306 200.278 47.7429C200.568 48.1795 200.754 48.7105 200.835 49.3359C200.916 49.9561 200.872 50.5131 200.703 51.0068C200.537 51.5001 200.266 51.9024 199.89 52.2137C199.517 52.5246 199.06 52.7153 198.518 52.7859ZM198.41 51.9572C198.822 51.9036 199.147 51.754 199.385 51.5083C199.623 51.2626 199.784 50.9595 199.867 50.5989C199.95 50.2383 199.965 49.8573 199.913 49.456C199.86 49.0547 199.748 48.6891 199.575 48.3592C199.402 48.0292 199.169 47.7747 198.875 47.5956C198.582 47.4166 198.229 47.3538 197.817 47.4074C197.406 47.461 197.081 47.612 196.843 47.8603C196.605 48.1086 196.445 48.4143 196.362 48.7775C196.28 49.1407 196.264 49.523 196.317 49.9243C196.369 50.3256 196.481 50.6899 196.654 51.0172C196.826 51.3446 197.059 51.5965 197.352 51.7729C197.646 51.9494 197.998 52.0108 198.41 51.9572ZM205.323 51.8998C204.761 51.9731 204.259 51.9033 203.817 51.6904C203.376 51.4775 203.016 51.1521 202.736 50.7142C202.457 50.2762 202.278 49.7576 202.2 49.1583C202.12 48.5485 202.162 47.9958 202.326 47.5002C202.491 47.0016 202.759 46.5944 203.129 46.2786C203.501 45.9599 203.958 45.7653 204.5 45.6947C204.922 45.6397 205.312 45.6684 205.672 45.7806C206.031 45.8929 206.337 46.0756 206.59 46.3289C206.843 46.5822 207.019 46.893 207.12 47.2615L206.198 47.3816C206.092 47.1171 205.904 46.8951 205.634 46.7156C205.367 46.5332 205.03 46.4684 204.623 46.5213C204.264 46.5681 203.96 46.703 203.714 46.9259C203.47 47.1459 203.294 47.4351 203.187 47.7935C203.082 48.149 203.059 48.5535 203.118 49.0069C203.179 49.4707 203.304 49.8651 203.495 50.1901C203.688 50.5147 203.931 50.7547 204.225 50.91C204.52 51.0649 204.851 51.1186 205.216 51.0711C205.455 51.0399 205.667 50.9699 205.852 50.8611C206.037 50.7522 206.186 50.6108 206.302 50.4368C206.417 50.2628 206.489 50.0626 206.518 49.8363L207.44 49.7162C207.434 50.0774 207.347 50.4134 207.178 50.7242C207.011 51.0321 206.771 51.2913 206.456 51.5019C206.144 51.7095 205.766 51.8421 205.323 51.8998ZM209.829 48.9599L209.665 47.8205L209.853 47.7961L212.131 44.7805L213.273 44.6319L210.843 47.8263L210.764 47.8364L209.829 48.9599ZM209.255 51.2607L208.212 43.2556L209.135 43.1355L210.177 51.1406L209.255 51.2607ZM213.07 50.764L210.337 48.0987L210.911 47.3722L214.242 50.6114L213.07 50.764Z" fill="#050E1A"/>
</g>
<defs>
<clipPath id="bgblur_0_2747_366_clip_path" transform="translate(-9.82812 16.1709)"><rect x="27.8281" y="31.5244" width="230" height="60" rx="18" transform="rotate(-7.41825 27.8281 31.5244)"/>
</clipPath><filter id="filter1_ddi_2747_366" x="0" y="0" width="291.477" height="148.851" filterUnits="userSpaceOnUse" color-interpolation-filters="sRGB">
<feFlood flood-opacity="0" result="BackgroundImageFix"/>
<feColorMatrix in="SourceAlpha" type="matrix" values="0 0 0 0 0 0 0 0 0 0 0 0 0 0 0 0 0 0 127 0" result="hardAlpha"/>
<feMorphology radius="12" operator="erode" in="SourceAlpha" result="effect1_dropShadow_2747_366"/>
<feOffset dy="8"/>
<feGaussianBlur stdDeviation="12"/>
<feComposite in2="hardAlpha" operator="out"/>
<feColorMatrix type="matrix" values="0 0 0 0 0.0194063 0 0 0 0 0.0533165 0 0 0 0 0.101371 0 0 0 0.18 0"/>
<feBlend mode="normal" in2="BackgroundImageFix" result="effect1_dropShadow_2747_366"/>
<feColorMatrix in="SourceAlpha" type="matrix" values="0 0 0 0 0 0 0 0 0 0 0 0 0 0 0 0 0 0 127 0" result="hardAlpha"/>
<feMorphology radius="30" operator="erode" in="SourceAlpha" result="effect2_dropShadow_2747_366"/>
<feOffset dy="30"/>
<feGaussianBlur stdDeviation="30"/>
<feComposite in2="hardAlpha" operator="out"/>
<feColorMatrix type="matrix" values="0 0 0 0 0.0194063 0 0 0 0 0.0533165 0 0 0 0 0.101371 0 0 0 0.25 0"/>
<feBlend mode="normal" in2="effect1_dropShadow_2747_366" result="effect2_dropShadow_2747_366"/>
<feBlend mode="normal" in="SourceGraphic" in2="effect2_dropShadow_2747_366" result="shape"/>
<feColorMatrix in="SourceAlpha" type="matrix" values="0 0 0 0 0 0 0 0 0 0 0 0 0 0 0 0 0 0 127 0" result="hardAlpha"/>
<feMorphology radius="1" operator="erode" in="SourceAlpha" result="effect3_innerShadow_2747_366"/>
<feOffset dy="1"/>
<feComposite in2="hardAlpha" operator="arithmetic" k2="-1" k3="1"/>
<feColorMatrix type="matrix" values="0 0 0 0 1 0 0 0 0 1 0 0 0 0 1 0 0 0 0.7 0"/>
<feBlend mode="normal" in2="shape" result="effect3_innerShadow_2747_366"/>
</filter>
<clipPath id="clip1_2747_366">
<rect width="15.668" height="15.996" fill="white" transform="translate(43.5547 51.6523) rotate(-7.41825)"/>
</clipPath>
</defs>
</svg>
