<svg width="121" height="33" viewBox="0 0 121 33" fill="none" xmlns="http://www.w3.org/2000/svg">
<path fill-rule="evenodd" clip-rule="evenodd" d="M10.0535 7.38997C9.79976 7.5193 9.46149 7.79653 9.3018 8.00599C9.04471 8.34305 9.01142 8.48087 9.01142 9.20902C9.01142 9.93858 9.04439 10.0746 9.30384 10.4147C9.73887 10.9853 10.4498 11.2939 11.1406 11.2121C12.2288 11.0832 12.9311 10.2974 12.9311 9.20902C12.9311 8.83683 12.8568 8.47507 12.7321 8.24058C12.2468 7.32832 10.97 6.92283 10.0535 7.38997ZM16.8838 7.27794C15.8688 7.33884 15.5712 7.49985 15.218 8.17935C15.0004 8.59773 15.0796 9.55006 15.3642 9.93847C15.8171 10.5565 16.0705 10.6051 18.8448 10.6052C21.874 10.6054 22.2314 10.6772 23.0219 11.444C24.4153 12.7955 24.0685 15.155 22.3437 16.0582C21.8065 16.3395 21.7255 16.3494 19.5162 16.4036C17.4345 16.4547 17.2161 16.4784 16.9389 16.6819C16.244 17.1923 16.0454 18.2955 16.5221 18.9971C16.9106 19.5691 17.3558 19.7356 18.4959 19.7356C19.0286 19.7356 19.5396 19.7645 19.6317 19.7998C19.7841 19.8582 20.7528 20.9006 25.5278 26.1435C27.4171 28.2178 27.8305 28.4886 29.0893 28.4767C30.4868 28.4634 31.5815 27.8201 32.4942 26.4758C33.3598 25.2009 34.0401 22.8506 33.5435 22.8506C33.4937 22.8506 33.2319 23.1923 32.9618 23.6099C32.2719 24.6765 31.5792 25.3842 31.0128 25.6005C30.1038 25.9477 30.062 25.9152 26.8287 22.3582C25.2391 20.6094 23.9266 19.1467 23.912 19.108C23.8974 19.0692 24.1569 18.8954 24.4889 18.7219C25.8048 18.0341 26.9733 16.4782 27.3626 14.8951C28.1804 11.5701 26.0373 8.16335 22.6771 7.44647C21.8492 7.26988 18.5949 7.17514 16.8838 7.27794ZM10.5149 12.7517C10.0482 12.8562 9.76959 13.0272 9.45257 13.404L9.1725 13.7368V18.2005C9.1725 22.5833 9.17669 22.6709 9.40392 23.0386C9.66918 23.4679 10.3312 23.8126 10.8907 23.8126C11.4275 23.8126 12.1047 23.472 12.4048 23.0511L12.6627 22.6895L12.693 18.3628C12.7202 14.4844 12.7045 13.9966 12.5419 13.6539C12.2233 12.9822 11.3074 12.5746 10.5149 12.7517Z" fill="url(#paint0_linear_2747_281)"/>
<path d="M8.53762 3.24311C11.9989 0.930816 16.9389 0.212333 16.9389 0.212333C16.9389 0.212333 13.192 -0.795934 8.76979 1.58178C4.34761 3.95949 1.62615 7.37214 0.391931 12.087C0.0149948 13.5272 0.00640368 13.6049 0.000389888 15.6539C-0.00455002 17.3004 0.0362595 17.9437 0.191222 18.6614C0.809462 21.5261 2.01372 24.0097 3.81829 26.1421C5.19599 27.77 6.88382 29.0688 8.90403 30.0554C11.1889 31.1712 13.1848 31.5935 15.8808 31.5317L17.4882 31.4948L17.8675 31.9158C18.6413 32.7743 19.9465 33.0702 21.1541 32.6606C21.8344 32.4298 23.0257 31.2855 23.0257 30.8629C23.0257 30.5118 22.8411 30.5047 21.5689 30.8069C20.5017 31.0604 20.2252 31.0273 19.9341 30.611C19.5509 30.0631 19.5486 28.7141 19.9304 28.4781C19.9967 28.4371 20.5834 28.2778 21.2341 28.1242C21.8849 27.9705 22.4378 27.7837 22.4626 27.709C22.549 27.4498 21.8384 26.9367 21.0701 26.7033C19.4455 26.2096 17.8724 26.9084 17.2568 28.3971C17.029 28.948 16.9351 28.9732 15.1092 28.9732C9.19849 28.9732 4.13423 24.8081 2.57118 18.6614C2.2198 17.2796 2.09652 15.0398 2.29036 13.5593C2.85888 9.21719 5.07636 5.55541 8.53762 3.24311Z" fill="url(#paint1_linear_2747_281)"/>
<path fill-rule="evenodd" clip-rule="evenodd" d="M39.57 7.97397C39.0327 8.32839 38.8157 8.78278 38.8774 9.42457C38.922 9.89008 38.9955 10.0447 39.308 10.3313C39.8304 10.8103 40.3655 10.8941 40.9851 10.594C41.5544 10.3183 41.7927 9.92606 41.7905 9.26889C41.7884 8.6718 41.6112 8.32545 41.148 8.013C40.6876 7.70262 40.0068 7.68583 39.57 7.97397ZM95.7831 7.84064C95.1398 8.01409 94.7435 8.56681 94.7435 9.2907C94.7435 10.4299 95.7976 11.1175 96.7774 10.6175C97.6796 10.1569 97.8542 8.96746 97.1251 8.2487C96.7577 7.88654 96.2197 7.72301 95.7831 7.84064ZM107.437 7.89035C106.934 8.16541 106.946 7.98247 106.946 15.2035V22.0558L107.214 22.3233C107.434 22.5437 107.589 22.591 108.09 22.591C108.592 22.591 108.747 22.5437 108.967 22.3233L109.234 22.0558V15.2461C109.234 11.5007 109.204 8.35695 109.167 8.25993C109.006 7.84184 107.941 7.61432 107.437 7.89035ZM45.4201 8.08713C44.7113 8.5195 44.7338 8.27595 44.7338 15.4896V22.0265L45.0691 22.3087C45.3451 22.5411 45.5134 22.5903 46.0224 22.5875C47.1767 22.581 47.2398 22.4235 47.2398 19.5456V17.2491H48.7973H50.3547L50.9378 18.094C53.3542 21.5965 53.9089 22.3484 54.1611 22.4634C54.3151 22.5335 54.7519 22.591 55.1319 22.591C55.9278 22.591 56.2502 22.4013 56.3367 21.8823C56.3842 21.5972 56.1772 21.2565 54.7178 19.2185L53.0445 16.8816L53.6841 16.5788C55.4318 15.7519 56.406 13.7951 56.0777 11.7713C55.7719 9.88528 54.5253 8.52844 52.633 8.02183C52.2379 7.91608 51.2201 7.87585 48.9285 7.8752C45.9856 7.87433 45.7449 7.88883 45.4201 8.08713ZM47.2398 12.499V14.8506L49.5006 14.8496C51.6572 14.8486 51.7872 14.8365 52.323 14.5868C53.942 13.8325 53.9446 11.3267 52.327 10.4617C51.9023 10.2345 51.7078 10.2148 49.555 10.1824L47.2398 10.1474V12.499ZM61.0883 11.9707C59.7277 12.3368 58.5266 13.35 57.8649 14.6898C57.3719 15.6882 57.2246 16.4973 57.2951 17.8192C57.346 18.7747 57.3951 18.9697 57.7893 19.7846C58.7555 21.7821 60.4754 22.809 62.8545 22.809C64.9352 22.809 66.9604 21.8315 66.9604 20.8274C66.9604 20.4199 66.3429 19.7565 65.9636 19.7565C65.8229 19.7565 65.2967 19.965 64.7945 20.2198C63.9281 20.6594 63.8332 20.683 62.9421 20.681C61.8114 20.6783 61.0677 20.3958 60.481 19.7459C60.0853 19.3077 59.7694 18.6773 59.7694 18.3259C59.7694 18.1297 59.922 18.1212 63.4549 18.1212H67.1402L67.3772 17.8689C67.5769 17.6561 67.6141 17.4884 67.6141 16.7985C67.6141 15.3997 67.216 14.3849 66.2629 13.3549C65.6134 12.6528 64.8465 12.1809 63.9805 11.9502C63.2594 11.7581 61.8408 11.7681 61.0883 11.9707ZM73.1051 12.0041C71.3978 12.4932 70.1022 13.7687 69.5736 15.4811C69.3707 16.1384 69.3573 16.5026 69.3573 21.3537V26.5256L69.6248 26.7931C69.9741 27.1427 70.9339 27.1761 71.3336 26.8525C71.5874 26.6471 71.5916 26.61 71.6453 24.1341L71.6998 21.624L72.3321 22.0495C73.1172 22.5778 73.5263 22.7048 74.6821 22.7791C76.3823 22.8884 77.7084 22.395 78.816 21.2408C80.2695 19.7263 80.7674 17.6067 80.156 15.5369C79.6709 13.8943 78.2099 12.4903 76.4467 11.972C75.6516 11.7384 73.9768 11.7544 73.1051 12.0041ZM85.7292 11.9662C83.0851 12.6787 81.4332 15.3417 81.8656 18.1941C82.2069 20.4447 83.7249 22.1469 85.8345 22.6446C87.4823 23.0334 89.0695 22.718 90.2363 21.7699L90.5776 21.4927L90.6492 21.8752C90.7452 22.3872 91.0661 22.591 91.7765 22.591C92.2469 22.591 92.4069 22.5405 92.6238 22.3233L92.8913 22.0558V19.1816C92.8913 16.0251 92.8423 15.6875 92.2096 14.4918C91.8206 13.7565 90.8195 12.7835 90.0512 12.394C88.9248 11.8229 86.9765 11.63 85.7292 11.9662ZM102.593 11.9172C101.344 12.1622 100.212 13.0993 99.7343 14.2835C99.4933 14.8813 99.4823 15.0425 99.4505 18.475L99.4175 22.0448L99.6904 22.3179C99.9169 22.5445 100.067 22.591 100.576 22.591C101.108 22.591 101.23 22.5489 101.507 22.2723L101.825 21.9536V18.7523C101.825 15.6474 101.833 15.5365 102.071 15.0709C102.468 14.2921 102.757 14.148 104.004 14.1048C105.247 14.0618 105.413 13.9593 105.5 13.1833C105.576 12.5146 105.323 12.0598 104.794 11.9128C104.316 11.7799 103.283 11.782 102.593 11.9172ZM39.5885 12.1861C39.4252 12.2748 39.2414 12.4413 39.1799 12.5561C39.1087 12.6892 39.0683 14.4297 39.0683 17.3593V21.9536L39.3867 22.2723C39.6672 22.5529 39.7824 22.591 40.3514 22.591C40.8818 22.591 41.0479 22.5443 41.2787 22.3303C41.4333 22.1868 41.59 21.9048 41.6268 21.7034C41.6636 21.502 41.6791 19.3831 41.6612 16.9947L41.6287 12.6522L41.2728 12.3342C40.9836 12.0756 40.8207 12.0169 40.4012 12.0205C40.1175 12.0229 39.7518 12.0975 39.5885 12.1861ZM95.2799 12.3348L94.9614 12.6535V17.3547V22.0558L95.2289 22.3233C95.4529 22.5476 95.6015 22.591 96.1453 22.591C96.7361 22.591 96.8195 22.561 97.0763 22.2555L97.3584 21.9202V17.2868V12.6535L97.0399 12.3348C96.7702 12.0651 96.6353 12.0162 96.1599 12.0162C95.6845 12.0162 95.5495 12.0651 95.2799 12.3348ZM111.17 12.1806C110.807 12.385 110.687 12.7983 110.84 13.3178C110.902 13.5313 111.404 14.7362 111.954 15.9953C112.504 17.2545 113.342 19.176 113.816 20.2653L114.678 22.2457L114.217 23.3679C113.665 24.7104 113.362 24.9894 112.453 24.9894C111.785 24.9894 111.46 25.2292 111.353 25.8007C111.174 26.7536 111.749 27.2171 113.005 27.1321C114.3 27.0447 115.238 26.4185 115.806 25.2619C115.954 24.9621 116.479 23.7602 116.973 22.591C118.378 19.264 119.725 16.1217 120.391 14.6165C120.727 13.8581 121.001 13.0854 121.001 12.8994C121.001 12.5133 120.705 12.1645 120.289 12.06C119.863 11.9529 119.141 12.084 118.924 12.3078C118.818 12.4172 118.205 13.7823 117.563 15.3412C116.921 16.9002 116.286 18.4417 116.151 18.7668L115.907 19.358L115.668 18.8213C115.536 18.5262 115.157 17.6224 114.825 16.813C113.443 13.442 113.025 12.496 112.83 12.2982C112.554 12.0181 111.58 11.949 111.17 12.1806ZM61.6216 14.0304C60.9594 14.245 60.3626 14.7625 60.0381 15.4032C59.5721 16.3233 59.4114 16.2679 62.5498 16.2679H65.3302L65.2582 15.9681C65.0673 15.1733 64.5437 14.5264 63.7653 14.1237C63.3006 13.8832 62.2208 13.8362 61.6216 14.0304ZM73.7929 14.166C73.0867 14.4015 72.3751 15.0555 72.0056 15.8085C71.5926 16.6499 71.5745 17.883 71.9625 18.7512C72.8316 20.6963 75.3759 21.2371 76.9587 19.8132C77.9566 18.9153 78.2902 17.4505 77.8127 16.0627C77.2706 14.4876 75.431 13.6196 73.7929 14.166ZM86.4992 14.0766C85.1139 14.4327 84.175 15.735 84.175 17.3006C84.175 18.6541 84.7977 19.729 85.8932 20.2673C86.4258 20.5291 86.6455 20.5731 87.3891 20.5671C88.4351 20.5588 89.0812 20.2932 89.6862 19.623C91.5786 17.5272 90.2926 14.1509 87.5526 14.0215C87.1631 14.003 86.689 14.0279 86.4992 14.0766Z" fill="#061D3D"/>
<path fill-rule="evenodd" clip-rule="evenodd" d="M39.57 7.97397C39.0327 8.32839 38.8157 8.78278 38.8774 9.42457C38.922 9.89008 38.9955 10.0447 39.308 10.3313C39.8304 10.8103 40.3655 10.8941 40.9851 10.594C41.5544 10.3183 41.7927 9.92606 41.7905 9.26889C41.7884 8.6718 41.6112 8.32545 41.148 8.013C40.6876 7.70262 40.0068 7.68583 39.57 7.97397ZM39.5885 12.1861C39.4252 12.2748 39.2414 12.4413 39.1799 12.5561C39.1087 12.6892 39.0683 14.4297 39.0683 17.3593V21.9536L39.3867 22.2723C39.6672 22.5529 39.7824 22.591 40.3514 22.591C40.8818 22.591 41.0479 22.5443 41.2787 22.3303C41.4333 22.1868 41.59 21.9048 41.6268 21.7034C41.6636 21.502 41.6791 19.3831 41.6612 16.9947L41.6287 12.6522L41.2728 12.3342C40.9835 12.0756 40.8207 12.0169 40.4012 12.0205C40.1175 12.0229 39.7518 12.0975 39.5885 12.1861Z" fill="url(#paint2_linear_2747_281)"/>
<defs>
<linearGradient id="paint0_linear_2747_281" x1="3.46678" y1="22.7465" x2="32.9347" y2="26.6445" gradientUnits="userSpaceOnUse">
<stop stop-color="#008080"/>
<stop offset="1" stop-color="#18E3CD"/>
</linearGradient>
<linearGradient id="paint1_linear_2747_281" x1="3.46678" y1="22.7465" x2="32.9347" y2="26.6445" gradientUnits="userSpaceOnUse">
<stop stop-color="#008080"/>
<stop offset="1" stop-color="#18E3CD"/>
</linearGradient>
<linearGradient id="paint2_linear_2747_281" x1="39.1678" y1="18.0344" x2="41.7661" y2="18.1005" gradientUnits="userSpaceOnUse">
<stop stop-color="#008080"/>
<stop offset="1" stop-color="#18E3CD"/>
</linearGradient>
</defs>
</svg>
